<svg xmlns="http://www.w3.org/2000/svg" xmlns:xlink="http://www.w3.org/1999/xlink" width="250" zoomAndPan="magnify" viewBox="0 0 187.5 74.999997" height="100" preserveAspectRatio="xMidYMid meet" version="1.0"><defs><g/><clipPath id="2703e2409f"><path d="M 21 8.910156 L 34 8.910156 L 34 28 L 21 28 Z M 21 8.910156 " clip-rule="nonzero"/></clipPath><clipPath id="0b43527a28"><path d="M 3.261719 22 L 22 22 L 22 36 L 3.261719 36 Z M 3.261719 22 " clip-rule="nonzero"/></clipPath><clipPath id="6e40320b42"><path d="M 22 47 L 35 47 L 35 65.761719 L 22 65.761719 Z M 22 47 " clip-rule="nonzero"/></clipPath><clipPath id="81d7736a45"><path d="M 30 47 L 43 47 L 43 65.761719 L 30 65.761719 Z M 30 47 " clip-rule="nonzero"/></clipPath><clipPath id="c3710f7884"><path d="M 42 39 L 60.855469 39 L 60.855469 54 L 42 54 Z M 42 39 " clip-rule="nonzero"/></clipPath><clipPath id="4f444861a3"><path d="M 41 22 L 60.855469 22 L 60.855469 37 L 41 37 Z M 41 22 " clip-rule="nonzero"/></clipPath></defs><path fill="#18bcc7" d="M 32.472656 10.929688 L 32.125 11.007812 L 31.550781 11.121094 L 31.253906 11.171875 C 31.109375 11.199219 30.960938 11.21875 30.816406 11.238281 L 30.679688 11.257812 C 30.5 11.277344 30.300781 11.300781 30.09375 11.304688 L 29.789062 11.304688 C 29.707031 11.304688 29.625 11.296875 29.546875 11.277344 L 29.453125 11.535156 C 29.65625 11.613281 29.863281 11.667969 30.078125 11.691406 C 30.289062 11.722656 30.507812 11.734375 30.695312 11.75 L 30.757812 11.75 C 30.894531 11.75 31.03125 11.75 31.167969 11.75 L 31.613281 11.75 L 31.914062 11.730469 L 32.222656 11.714844 L 32.578125 11.6875 C 32.753906 11.671875 32.941406 11.652344 33.125 11.632812 C 33.304688 11.609375 33.527344 11.585938 33.726562 11.558594 L 34.324219 11.472656 C 34.53125 11.441406 34.730469 11.40625 34.925781 11.371094 L 35.519531 11.265625 C 35.777344 11.21875 36.03125 11.167969 36.285156 11.113281 L 36.707031 11.027344 C 37.011719 10.960938 37.3125 10.890625 37.617188 10.820312 L 38.019531 10.726562 L 38.148438 10.707031 C 38.195312 10.695312 38.242188 10.6875 38.289062 10.6875 L 38.53125 10.6875 L 38.59375 10.699219 C 38.628906 10.699219 38.664062 10.707031 38.695312 10.71875 L 38.722656 10.71875 C 38.75 10.726562 38.773438 10.738281 38.796875 10.75 L 38.851562 10.773438 L 38.898438 10.804688 C 38.925781 10.820312 38.949219 10.835938 38.96875 10.855469 L 38.96875 10.863281 L 38.980469 10.863281 C 39.003906 10.886719 39.027344 10.90625 39.046875 10.933594 C 39.0625 10.949219 39.078125 10.964844 39.09375 10.976562 L 39.175781 11.089844 L 39.199219 11.132812 C 39.355469 11.402344 39.464844 11.691406 39.523438 12 C 39.660156 12.714844 39.703125 13.4375 39.65625 14.164062 C 39.617188 14.921875 39.53125 15.675781 39.398438 16.425781 C 39.269531 17.179688 39.101562 17.9375 38.902344 18.675781 C 38.796875 19.085938 38.671875 19.484375 38.582031 19.785156 C 38.464844 20.15625 38.335938 20.523438 38.207031 20.878906 C 37.945312 21.59375 37.648438 22.296875 37.304688 22.980469 C 36.980469 23.648438 36.59375 24.28125 36.144531 24.875 C 35.933594 25.15625 35.695312 25.410156 35.433594 25.644531 C 35.199219 25.863281 34.9375 26.035156 34.644531 26.160156 L 34.597656 26.179688 L 34.574219 26.179688 L 34.4375 26.222656 C 34.421875 26.230469 34.410156 26.230469 34.394531 26.234375 C 34.378906 26.238281 34.363281 26.238281 34.351562 26.242188 C 34.332031 26.242188 34.316406 26.242188 34.300781 26.253906 C 34.285156 26.253906 34.269531 26.253906 34.253906 26.253906 L 34.167969 26.261719 C 34.125 26.261719 34.085938 26.273438 34.0625 26.273438 C 34.042969 26.273438 34.023438 26.269531 34 26.261719 C 33.992188 26.261719 33.984375 26.253906 33.976562 26.246094 C 33.949219 26.21875 33.929688 26.191406 33.914062 26.15625 C 33.851562 26.027344 33.804688 25.890625 33.777344 25.746094 C 33.707031 25.394531 33.660156 25.039062 33.636719 24.683594 L 33.636719 24.640625 C 33.625 24.496094 33.613281 24.34375 33.601562 24.195312 C 33.582031 23.945312 33.5625 23.695312 33.535156 23.445312 C 33.472656 22.609375 33.300781 21.792969 33.015625 21.003906 C 32.863281 20.601562 32.652344 20.230469 32.382812 19.894531 C 32.113281 19.558594 31.789062 19.285156 31.410156 19.082031 L 31.257812 19.304688 C 31.550781 19.550781 31.792969 19.835938 31.976562 20.167969 C 32.160156 20.496094 32.289062 20.84375 32.371094 21.207031 C 32.457031 21.578125 32.507812 21.949219 32.527344 22.328125 C 32.550781 22.683594 32.558594 23.0625 32.550781 23.488281 C 32.550781 23.722656 32.550781 23.960938 32.535156 24.195312 L 32.527344 24.671875 C 32.527344 24.878906 32.527344 25.085938 32.527344 25.292969 C 32.53125 25.515625 32.546875 25.734375 32.570312 25.949219 C 32.597656 26.203125 32.65625 26.449219 32.75 26.6875 C 32.808594 26.835938 32.890625 26.976562 32.992188 27.101562 C 33.113281 27.25 33.257812 27.367188 33.425781 27.457031 C 33.589844 27.539062 33.761719 27.59375 33.945312 27.613281 C 34.019531 27.621094 34.09375 27.625 34.164062 27.625 L 34.359375 27.625 C 34.40625 27.625 34.449219 27.617188 34.496094 27.609375 L 34.613281 27.609375 C 34.660156 27.605469 34.707031 27.597656 34.753906 27.589844 L 34.964844 27.539062 L 35.039062 27.519531 L 35.121094 27.492188 C 35.582031 27.332031 36.003906 27.101562 36.382812 26.796875 C 36.734375 26.515625 37.054688 26.203125 37.34375 25.859375 C 37.894531 25.207031 38.367188 24.5 38.761719 23.742188 C 39.164062 23.015625 39.515625 22.265625 39.820312 21.492188 C 40.109375 20.726562 40.367188 19.933594 40.582031 19.136719 C 41.027344 17.527344 41.269531 15.890625 41.316406 14.226562 C 41.34375 13.351562 41.25 12.488281 41.042969 11.636719 C 40.921875 11.160156 40.722656 10.71875 40.445312 10.3125 L 40.382812 10.226562 L 40.289062 10.113281 C 40.257812 10.074219 40.226562 10.039062 40.183594 9.992188 L 40.140625 9.953125 C 40.058594 9.871094 39.964844 9.792969 39.867188 9.722656 C 39.765625 9.644531 39.652344 9.578125 39.535156 9.523438 L 39.484375 9.492188 L 39.417969 9.46875 C 39.183594 9.371094 38.9375 9.316406 38.679688 9.304688 L 38.386719 9.304688 C 38.332031 9.304688 38.28125 9.3125 38.230469 9.320312 L 38.171875 9.328125 C 38.0625 9.339844 37.957031 9.363281 37.855469 9.390625 L 37.675781 9.441406 L 37.53125 9.484375 L 36.402344 9.839844 L 35.273438 10.1875 L 34.417969 10.433594 L 33.5625 10.667969 L 32.984375 10.808594 C 32.816406 10.855469 32.640625 10.898438 32.472656 10.929688 Z M 32.472656 10.929688 " fill-opacity="1" fill-rule="nonzero"/><g clip-path="url(#2703e2409f)"><path fill="#18bcc7" d="M 22.03125 16.296875 C 22.238281 16.90625 22.472656 17.507812 22.742188 18.09375 C 23.011719 18.679688 23.316406 19.25 23.652344 19.800781 C 23.730469 19.929688 23.820312 20.066406 23.921875 20.21875 C 24.027344 20.371094 24.121094 20.492188 24.214844 20.617188 C 24.40625 20.863281 24.59375 21.109375 24.785156 21.355469 L 25.355469 22.074219 C 25.941406 22.808594 26.496094 23.503906 26.984375 24.246094 C 27.3125 24.738281 27.589844 25.253906 27.8125 25.800781 C 28.03125 26.359375 28.179688 26.9375 28.257812 27.535156 L 28.527344 27.535156 C 28.542969 27.378906 28.554688 27.222656 28.566406 27.0625 C 28.566406 26.957031 28.566406 26.855469 28.566406 26.75 L 28.566406 26.589844 C 28.566406 26.519531 28.566406 26.453125 28.558594 26.382812 L 28.527344 26.0625 C 28.527344 26.035156 28.527344 26.003906 28.519531 25.972656 L 28.457031 25.617188 C 28.328125 24.976562 28.125 24.363281 27.847656 23.773438 C 27.574219 23.199219 27.269531 22.640625 26.933594 22.097656 C 26.757812 21.820312 26.578125 21.542969 26.4375 21.308594 C 26.269531 21.046875 26.101562 20.789062 25.933594 20.53125 C 25.753906 20.277344 25.597656 20.019531 25.429688 19.757812 C 25.347656 19.625 25.273438 19.515625 25.203125 19.402344 C 25.136719 19.285156 25.054688 19.140625 24.996094 19.027344 C 24.722656 18.511719 24.472656 17.976562 24.25 17.433594 C 24.003906 16.824219 23.808594 16.285156 23.652344 15.773438 C 23.476562 15.21875 23.339844 14.660156 23.234375 14.089844 C 23.125 13.550781 23.078125 13.003906 23.09375 12.453125 C 23.101562 12.203125 23.132812 11.960938 23.191406 11.71875 C 23.242188 11.507812 23.324219 11.3125 23.4375 11.132812 C 23.542969 10.96875 23.675781 10.835938 23.84375 10.734375 C 24.027344 10.621094 24.226562 10.542969 24.441406 10.5 C 24.6875 10.449219 24.9375 10.425781 25.1875 10.429688 L 25.601562 10.429688 C 25.652344 10.429688 25.703125 10.429688 25.757812 10.441406 L 26.019531 10.472656 C 27.21875 10.636719 28.421875 10.722656 29.632812 10.730469 L 29.820312 10.730469 C 29.921875 10.730469 30.027344 10.730469 30.128906 10.722656 L 30.410156 10.722656 C 30.515625 10.722656 30.621094 10.722656 30.730469 10.703125 L 31.199219 10.660156 C 31.308594 10.648438 31.417969 10.632812 31.527344 10.617188 L 31.675781 10.59375 C 31.757812 10.582031 31.851562 10.566406 31.917969 10.550781 L 32.144531 10.503906 C 32.203125 10.492188 32.257812 10.476562 32.3125 10.460938 L 32.390625 10.4375 L 32.46875 10.417969 C 32.523438 10.402344 32.574219 10.390625 32.625 10.371094 L 32.859375 10.28125 L 33.085938 10.179688 C 33.246094 10.101562 33.386719 9.992188 33.503906 9.855469 L 33.300781 9.679688 C 33.28125 9.699219 33.253906 9.714844 33.226562 9.726562 C 33.207031 9.738281 33.1875 9.746094 33.167969 9.753906 L 33.101562 9.78125 L 32.953125 9.828125 L 32.742188 9.871094 L 32.511719 9.898438 C 32.46875 9.90625 32.421875 9.910156 32.378906 9.910156 L 32.222656 9.910156 C 32.183594 9.910156 32.140625 9.910156 32.101562 9.910156 L 31.628906 9.910156 C 31.03125 9.890625 30.433594 9.835938 29.839844 9.75 C 28.792969 9.601562 27.65625 9.394531 26.261719 9.082031 L 25.980469 9.023438 L 25.773438 8.988281 L 25.6875 8.976562 L 25.507812 8.949219 L 25.253906 8.925781 C 25.109375 8.910156 24.964844 8.90625 24.828125 8.90625 C 24.605469 8.90625 24.382812 8.921875 24.164062 8.953125 C 23.761719 9.007812 23.382812 9.132812 23.027344 9.328125 C 22.648438 9.535156 22.332031 9.816406 22.082031 10.167969 C 21.84375 10.5 21.671875 10.863281 21.5625 11.253906 C 21.46875 11.613281 21.410156 11.972656 21.386719 12.34375 C 21.355469 13.027344 21.40625 13.707031 21.53125 14.378906 C 21.65625 15.03125 21.820312 15.667969 22.03125 16.296875 Z M 22.03125 16.296875 " fill-opacity="1" fill-rule="nonzero"/></g><path fill="#18bcc7" d="M 8.84375 25.269531 L 8.789062 25.398438 C 8.714844 25.5625 8.628906 25.753906 8.535156 25.929688 C 8.519531 25.964844 8.5 25.992188 8.484375 26.023438 L 8.4375 26.097656 C 8.425781 26.121094 8.410156 26.144531 8.390625 26.171875 L 8.378906 26.191406 C 8.335938 26.261719 8.289062 26.328125 8.230469 26.390625 L 8.410156 26.597656 C 8.578125 26.464844 8.726562 26.3125 8.855469 26.140625 C 8.992188 25.960938 9.113281 25.785156 9.222656 25.632812 L 9.25 25.582031 C 9.347656 25.429688 9.449219 25.269531 9.535156 25.109375 L 9.6875 24.84375 L 9.96875 24.300781 L 10.125 23.972656 C 10.203125 23.808594 10.285156 23.640625 10.355469 23.472656 C 10.425781 23.308594 10.519531 23.105469 10.597656 22.914062 L 10.824219 22.359375 C 10.902344 22.167969 10.972656 21.976562 11.042969 21.789062 L 11.253906 21.222656 C 11.339844 20.976562 11.429688 20.730469 11.507812 20.480469 C 11.554688 20.347656 11.601562 20.214844 11.644531 20.078125 C 11.742188 19.78125 11.835938 19.488281 11.929688 19.191406 L 12.050781 18.792969 L 12.097656 18.675781 C 12.109375 18.628906 12.128906 18.585938 12.152344 18.542969 L 12.183594 18.472656 C 12.191406 18.460938 12.199219 18.445312 12.210938 18.433594 L 12.226562 18.40625 C 12.238281 18.394531 12.246094 18.378906 12.253906 18.363281 L 12.273438 18.332031 C 12.289062 18.316406 12.300781 18.300781 12.316406 18.285156 C 12.335938 18.253906 12.359375 18.230469 12.386719 18.207031 L 12.394531 18.207031 L 12.40625 18.199219 C 12.425781 18.179688 12.445312 18.160156 12.46875 18.148438 L 12.515625 18.113281 L 12.566406 18.089844 C 12.59375 18.074219 12.617188 18.0625 12.644531 18.054688 L 12.667969 18.054688 C 12.699219 18.042969 12.730469 18.035156 12.761719 18.03125 L 12.824219 18.015625 L 12.960938 18 L 13.050781 18 C 13.347656 18.007812 13.640625 18.058594 13.921875 18.160156 C 14.609375 18.402344 15.253906 18.730469 15.855469 19.140625 C 16.492188 19.558594 17.101562 20.011719 17.679688 20.507812 C 18.265625 21 18.835938 21.527344 19.371094 22.074219 C 19.667969 22.375 19.953125 22.679688 20.164062 22.910156 C 20.421875 23.199219 20.675781 23.496094 20.914062 23.785156 C 21.402344 24.375 21.855469 24.988281 22.273438 25.625 C 22.683594 26.242188 23.035156 26.890625 23.320312 27.574219 C 23.453125 27.898438 23.554688 28.234375 23.628906 28.578125 C 23.695312 28.890625 23.710938 29.203125 23.671875 29.519531 L 23.671875 29.59375 L 23.636719 29.730469 C 23.632812 29.746094 23.628906 29.761719 23.625 29.777344 C 23.617188 29.789062 23.613281 29.800781 23.609375 29.816406 L 23.59375 29.867188 C 23.589844 29.882812 23.582031 29.898438 23.574219 29.914062 L 23.539062 29.988281 C 23.527344 30.019531 23.511719 30.050781 23.496094 30.082031 C 23.484375 30.101562 23.472656 30.117188 23.457031 30.132812 C 23.449219 30.140625 23.441406 30.144531 23.429688 30.144531 C 23.402344 30.148438 23.378906 30.148438 23.351562 30.144531 L 23.320312 30.144531 C 23.175781 30.136719 23.035156 30.105469 22.898438 30.058594 C 22.558594 29.9375 22.226562 29.796875 21.90625 29.636719 L 21.871094 29.621094 L 21.464844 29.429688 C 21.242188 29.316406 21.015625 29.210938 20.785156 29.101562 C 20.03125 28.734375 19.242188 28.472656 18.417969 28.316406 C 18.183594 28.28125 17.949219 28.261719 17.710938 28.261719 C 17.515625 28.261719 17.328125 28.273438 17.136719 28.304688 C 16.710938 28.367188 16.316406 28.511719 15.945312 28.734375 L 16.0625 28.976562 C 16.398438 28.855469 16.742188 28.796875 17.097656 28.796875 L 17.171875 28.796875 C 17.546875 28.804688 17.910156 28.863281 18.265625 28.976562 C 18.628906 29.089844 18.976562 29.234375 19.3125 29.40625 C 19.628906 29.566406 19.960938 29.75 20.324219 29.972656 C 20.527344 30.097656 20.730469 30.222656 20.9375 30.351562 L 21.339844 30.597656 C 21.515625 30.707031 21.695312 30.8125 21.871094 30.914062 C 22.0625 31.019531 22.257812 31.117188 22.460938 31.203125 C 22.691406 31.308594 22.9375 31.378906 23.1875 31.417969 C 23.269531 31.429688 23.347656 31.4375 23.425781 31.4375 C 23.507812 31.433594 23.589844 31.429688 23.667969 31.417969 C 23.859375 31.390625 24.035156 31.324219 24.199219 31.222656 C 24.355469 31.125 24.488281 31 24.597656 30.855469 C 24.664062 30.765625 24.722656 30.675781 24.777344 30.578125 L 24.816406 30.507812 C 24.839844 30.464844 24.863281 30.421875 24.882812 30.378906 C 24.882812 30.359375 24.894531 30.34375 24.90625 30.320312 L 24.925781 30.273438 C 24.945312 30.226562 24.964844 30.183594 24.980469 30.132812 L 25.042969 29.929688 C 25.042969 29.90625 25.058594 29.882812 25.0625 29.855469 L 25.082031 29.769531 C 25.179688 29.289062 25.191406 28.808594 25.121094 28.328125 C 25.046875 27.886719 24.933594 27.460938 24.777344 27.042969 C 24.492188 26.234375 24.128906 25.464844 23.675781 24.734375 C 23.242188 24.027344 22.765625 23.347656 22.246094 22.695312 C 21.734375 22.058594 21.179688 21.4375 20.601562 20.847656 C 19.4375 19.652344 18.148438 18.613281 16.734375 17.726562 C 15.992188 17.265625 15.203125 16.910156 14.367188 16.664062 C 13.988281 16.554688 13.601562 16.5 13.210938 16.496094 C 13.113281 16.496094 13.015625 16.496094 12.917969 16.507812 L 12.816406 16.515625 L 12.667969 16.542969 C 12.621094 16.550781 12.570312 16.558594 12.511719 16.574219 L 12.457031 16.585938 C 12.339844 16.617188 12.226562 16.660156 12.117188 16.707031 C 12 16.757812 11.886719 16.816406 11.777344 16.886719 L 11.726562 16.917969 L 11.671875 16.960938 C 11.570312 17.035156 11.480469 17.117188 11.398438 17.207031 C 11.308594 17.300781 11.226562 17.402344 11.15625 17.515625 L 11.132812 17.546875 C 11.105469 17.585938 11.082031 17.628906 11.058594 17.675781 L 11.007812 17.769531 C 10.984375 17.816406 10.960938 17.863281 10.941406 17.914062 L 10.921875 17.96875 C 10.878906 18.066406 10.84375 18.167969 10.816406 18.269531 L 10.769531 18.449219 L 10.734375 18.597656 L 10.472656 19.753906 L 10.195312 20.902344 L 9.976562 21.761719 L 9.742188 22.621094 L 9.5625 23.1875 C 9.515625 23.367188 9.460938 23.527344 9.410156 23.691406 L 9.308594 24.027344 L 9.117188 24.582031 L 9.007812 24.863281 C 8.953125 25 8.898438 25.140625 8.84375 25.269531 Z M 8.84375 25.269531 " fill-opacity="1" fill-rule="nonzero"/><g clip-path="url(#0b43527a28)"><path fill="#18bcc7" d="M 5.050781 33.972656 C 5.625 34.347656 6.234375 34.648438 6.882812 34.878906 C 7.496094 35.097656 8.125 35.277344 8.765625 35.410156 C 9.398438 35.542969 10.03125 35.640625 10.671875 35.707031 C 11.285156 35.761719 11.789062 35.792969 12.261719 35.792969 C 12.378906 35.792969 12.492188 35.792969 12.617188 35.792969 C 12.765625 35.792969 12.925781 35.78125 13.113281 35.769531 C 13.300781 35.753906 13.449219 35.738281 13.605469 35.71875 C 13.914062 35.679688 14.222656 35.640625 14.527344 35.597656 C 14.835938 35.558594 15.136719 35.515625 15.4375 35.472656 C 16.367188 35.335938 17.25 35.210938 18.136719 35.164062 C 18.316406 35.164062 18.503906 35.152344 18.671875 35.152344 C 19.078125 35.148438 19.488281 35.179688 19.890625 35.238281 C 20.484375 35.332031 21.058594 35.496094 21.613281 35.730469 L 21.746094 35.496094 C 21.621094 35.40625 21.492188 35.320312 21.359375 35.222656 C 21.273438 35.167969 21.179688 35.113281 21.089844 35.0625 L 20.953125 34.980469 C 20.890625 34.941406 20.828125 34.914062 20.773438 34.882812 L 20.480469 34.746094 L 20.402344 34.710938 L 20.0625 34.582031 C 19.445312 34.371094 18.816406 34.238281 18.164062 34.179688 C 17.71875 34.136719 17.238281 34.117188 16.695312 34.117188 C 16.550781 34.117188 16.402344 34.117188 16.261719 34.117188 C 15.9375 34.117188 15.621094 34.132812 15.324219 34.148438 C 15.03125 34.160156 14.707031 34.171875 14.398438 34.1875 C 14.09375 34.203125 13.789062 34.214844 13.484375 34.226562 L 13.457031 34.226562 C 13.3125 34.226562 13.1875 34.238281 13.054688 34.242188 C 12.886719 34.242188 12.753906 34.242188 12.625 34.242188 C 12.042969 34.214844 11.457031 34.160156 10.878906 34.074219 C 10.230469 33.984375 9.664062 33.878906 9.144531 33.753906 C 8.578125 33.625 8.023438 33.464844 7.480469 33.265625 C 6.957031 33.082031 6.464844 32.847656 5.996094 32.554688 C 5.785156 32.421875 5.589844 32.269531 5.410156 32.097656 C 5.257812 31.949219 5.132812 31.777344 5.03125 31.589844 C 4.941406 31.417969 4.898438 31.234375 4.890625 31.039062 C 4.886719 30.824219 4.921875 30.609375 4.992188 30.40625 C 5.074219 30.167969 5.179688 29.941406 5.3125 29.722656 L 5.417969 29.546875 L 5.488281 29.441406 L 5.535156 29.375 C 5.5625 29.332031 5.597656 29.289062 5.628906 29.246094 L 5.785156 29.035156 C 6.566406 28.046875 7.273438 27.011719 7.914062 25.929688 C 7.976562 25.824219 8.03125 25.714844 8.089844 25.613281 L 8.148438 25.507812 L 8.222656 25.367188 C 8.273438 25.277344 8.324219 25.191406 8.367188 25.082031 L 8.570312 24.65625 C 8.613281 24.554688 8.65625 24.457031 8.695312 24.355469 C 8.714844 24.304688 8.734375 24.261719 8.753906 24.214844 C 8.785156 24.136719 8.8125 24.054688 8.835938 23.980469 L 8.914062 23.761719 C 8.933594 23.707031 8.945312 23.648438 8.960938 23.59375 C 8.960938 23.570312 8.972656 23.546875 8.980469 23.515625 C 8.988281 23.488281 8.992188 23.464844 9 23.441406 C 9.015625 23.386719 9.03125 23.332031 9.039062 23.277344 L 9.082031 23.035156 L 9.105469 22.785156 C 9.121094 22.605469 9.097656 22.433594 9.039062 22.261719 L 8.78125 22.34375 C 8.785156 22.375 8.785156 22.402344 8.78125 22.433594 C 8.78125 22.457031 8.78125 22.476562 8.78125 22.5 L 8.769531 22.570312 L 8.734375 22.722656 L 8.664062 22.925781 L 8.574219 23.136719 C 8.558594 23.179688 8.539062 23.21875 8.519531 23.257812 C 8.503906 23.28125 8.492188 23.304688 8.484375 23.328125 C 8.46875 23.351562 8.457031 23.375 8.449219 23.398438 C 8.425781 23.441406 8.40625 23.484375 8.378906 23.523438 L 8.265625 23.722656 C 8.234375 23.78125 8.195312 23.847656 8.152344 23.914062 C 7.832031 24.417969 7.484375 24.90625 7.109375 25.375 C 6.453125 26.203125 5.6875 27.074219 4.722656 28.125 L 4.527344 28.339844 C 4.484375 28.390625 4.4375 28.445312 4.394531 28.5 L 4.339844 28.5625 L 4.230469 28.699219 L 4.078125 28.90625 C 3.863281 29.207031 3.6875 29.523438 3.546875 29.863281 C 3.390625 30.238281 3.304688 30.625 3.292969 31.03125 C 3.285156 31.464844 3.367188 31.878906 3.539062 32.273438 C 3.707031 32.644531 3.933594 32.976562 4.21875 33.265625 C 4.46875 33.53125 4.746094 33.765625 5.050781 33.972656 Z M 5.050781 33.972656 " fill-opacity="1" fill-rule="nonzero"/></g><path fill="#18bcc7" d="M 7.996094 49.214844 L 8.402344 49.648438 C 8.523438 49.777344 8.640625 49.910156 8.757812 50.035156 L 8.992188 50.300781 L 9.375 50.75 L 9.5625 50.980469 C 9.65625 51.09375 9.742188 51.210938 9.832031 51.328125 L 9.917969 51.445312 C 10.023438 51.589844 10.140625 51.753906 10.246094 51.929688 C 10.265625 51.960938 10.285156 51.992188 10.300781 52.023438 L 10.34375 52.097656 C 10.359375 52.121094 10.371094 52.144531 10.382812 52.175781 L 10.394531 52.195312 C 10.433594 52.269531 10.464844 52.34375 10.488281 52.421875 L 10.753906 52.378906 C 10.730469 52.164062 10.675781 51.957031 10.589844 51.757812 C 10.511719 51.554688 10.410156 51.359375 10.335938 51.1875 L 10.308594 51.136719 C 10.226562 50.976562 10.132812 50.808594 10.046875 50.648438 L 9.890625 50.382812 L 9.730469 50.128906 L 9.566406 49.867188 L 9.359375 49.570312 C 9.261719 49.425781 9.15625 49.269531 9.046875 49.125 C 8.941406 48.980469 8.8125 48.796875 8.695312 48.632812 L 8.324219 48.152344 C 8.195312 47.988281 8.066406 47.828125 7.945312 47.675781 L 7.558594 47.207031 C 7.390625 47.007812 7.222656 46.808594 7.050781 46.609375 L 6.773438 46.292969 C 6.566406 46.058594 6.355469 45.828125 6.148438 45.597656 L 5.871094 45.289062 L 5.785156 45.191406 C 5.753906 45.15625 5.726562 45.117188 5.703125 45.078125 L 5.660156 45.011719 C 5.648438 45 5.644531 44.984375 5.636719 44.972656 C 5.632812 44.960938 5.628906 44.953125 5.625 44.945312 L 5.601562 44.898438 C 5.59375 44.886719 5.585938 44.875 5.582031 44.863281 L 5.5625 44.804688 C 5.546875 44.773438 5.539062 44.738281 5.53125 44.707031 L 5.53125 44.679688 C 5.523438 44.652344 5.519531 44.625 5.519531 44.597656 C 5.519531 44.578125 5.519531 44.558594 5.519531 44.539062 C 5.519531 44.519531 5.519531 44.5 5.519531 44.484375 C 5.519531 44.453125 5.523438 44.425781 5.527344 44.398438 L 5.527344 44.375 C 5.535156 44.34375 5.542969 44.308594 5.550781 44.28125 C 5.550781 44.261719 5.566406 44.242188 5.570312 44.222656 C 5.578125 44.203125 5.628906 44.09375 5.628906 44.09375 L 5.652344 44.050781 C 5.8125 43.78125 6.011719 43.546875 6.25 43.34375 C 6.808594 42.875 7.417969 42.484375 8.078125 42.171875 C 8.757812 41.832031 9.457031 41.535156 10.175781 41.285156 C 10.898438 41.03125 11.640625 40.804688 12.382812 40.621094 C 12.703125 40.535156 13.050781 40.457031 13.507812 40.359375 C 13.886719 40.28125 14.269531 40.210938 14.640625 40.152344 C 15.394531 40.027344 16.152344 39.949219 16.917969 39.910156 C 17.144531 39.898438 17.371094 39.894531 17.589844 39.894531 C 18.109375 39.894531 18.625 39.925781 19.140625 40 C 19.484375 40.046875 19.824219 40.128906 20.15625 40.242188 C 20.460938 40.339844 20.738281 40.488281 20.992188 40.683594 L 21.035156 40.714844 L 21.050781 40.730469 L 21.15625 40.828125 L 21.183594 40.859375 L 21.214844 40.894531 L 21.246094 40.933594 C 21.257812 40.945312 21.269531 40.957031 21.277344 40.972656 L 21.324219 41.039062 C 21.347656 41.074219 21.371094 41.109375 21.382812 41.128906 C 21.394531 41.148438 21.402344 41.167969 21.40625 41.1875 C 21.410156 41.195312 21.410156 41.207031 21.40625 41.214844 C 21.398438 41.25 21.378906 41.285156 21.359375 41.316406 C 21.277344 41.433594 21.179688 41.542969 21.066406 41.632812 C 20.792969 41.867188 20.503906 42.082031 20.203125 42.277344 L 20.171875 42.300781 L 19.800781 42.550781 C 19.59375 42.6875 19.382812 42.828125 19.175781 42.972656 C 18.476562 43.4375 17.851562 43.984375 17.300781 44.617188 C 17.023438 44.949219 16.804688 45.316406 16.640625 45.714844 C 16.480469 46.113281 16.402344 46.527344 16.410156 46.957031 L 16.675781 46.980469 C 16.746094 46.605469 16.882812 46.257812 17.082031 45.929688 C 17.277344 45.613281 17.511719 45.328125 17.789062 45.078125 C 18.074219 44.828125 18.375 44.597656 18.691406 44.394531 C 18.988281 44.203125 19.316406 44.011719 19.691406 43.808594 C 19.898438 43.699219 20.109375 43.585938 20.324219 43.476562 L 20.746094 43.253906 C 20.921875 43.15625 21.097656 43.054688 21.277344 42.949219 C 21.46875 42.839844 21.648438 42.722656 21.828125 42.59375 C 22.035156 42.445312 22.21875 42.273438 22.378906 42.074219 C 22.480469 41.945312 22.5625 41.808594 22.621094 41.65625 C 22.691406 41.480469 22.726562 41.296875 22.722656 41.109375 C 22.714844 40.921875 22.675781 40.746094 22.605469 40.574219 C 22.558594 40.476562 22.511719 40.382812 22.453125 40.289062 L 22.414062 40.21875 C 22.390625 40.175781 22.363281 40.132812 22.332031 40.097656 L 22.296875 40.046875 L 22.261719 40.003906 C 22.234375 39.964844 22.207031 39.925781 22.171875 39.890625 L 22.027344 39.730469 C 22.007812 39.710938 21.992188 39.691406 21.972656 39.675781 L 21.910156 39.617188 C 21.542969 39.292969 21.136719 39.039062 20.683594 38.855469 C 20.269531 38.6875 19.839844 38.558594 19.398438 38.472656 C 18.621094 38.324219 17.835938 38.253906 17.046875 38.265625 L 16.859375 38.265625 C 16.027344 38.28125 15.199219 38.347656 14.375 38.46875 C 13.558594 38.589844 12.75 38.75 11.949219 38.953125 C 10.328125 39.347656 8.78125 39.933594 7.304688 40.710938 C 6.523438 41.113281 5.816406 41.613281 5.175781 42.210938 C 4.816406 42.550781 4.527344 42.9375 4.308594 43.378906 L 4.265625 43.472656 L 4.210938 43.613281 C 4.191406 43.660156 4.175781 43.707031 4.160156 43.765625 L 4.144531 43.820312 C 4.113281 43.9375 4.089844 44.054688 4.078125 44.175781 C 4.058594 44.304688 4.054688 44.429688 4.0625 44.558594 L 4.0625 44.621094 L 4.074219 44.691406 C 4.085938 44.808594 4.109375 44.929688 4.148438 45.042969 C 4.183594 45.167969 4.230469 45.289062 4.289062 45.40625 L 4.304688 45.441406 C 4.324219 45.488281 4.351562 45.53125 4.378906 45.574219 L 4.433594 45.664062 C 4.460938 45.710938 4.488281 45.753906 4.523438 45.792969 L 4.5625 45.839844 C 4.625 45.925781 4.695312 46.007812 4.769531 46.082031 L 4.898438 46.214844 L 5.007812 46.320312 L 5.875 47.128906 L 6.726562 47.953125 L 7.355469 48.578125 Z M 7.996094 49.214844 " fill-opacity="1" fill-rule="nonzero"/><path fill="#18bcc7" d="M 24.011719 46.84375 C 24.390625 46.378906 24.824219 45.964844 25.308594 45.601562 L 25.171875 45.367188 L 24.742188 45.5625 C 24.644531 45.613281 24.554688 45.664062 24.464844 45.714844 L 24.328125 45.792969 C 24.265625 45.828125 24.207031 45.863281 24.148438 45.902344 L 23.882812 46.082031 L 23.808594 46.128906 L 23.53125 46.378906 C 23.039062 46.796875 22.601562 47.269531 22.222656 47.796875 C 21.851562 48.316406 21.515625 48.851562 21.207031 49.410156 C 21.046875 49.695312 20.890625 49.984375 20.757812 50.230469 C 20.628906 50.476562 20.46875 50.777344 20.328125 51.050781 C 20.1875 51.324219 20.042969 51.582031 19.894531 51.867188 C 19.824219 52.003906 19.761719 52.121094 19.691406 52.238281 C 19.621094 52.359375 19.539062 52.496094 19.472656 52.59375 C 19.152344 53.085938 18.808594 53.566406 18.445312 54.011719 C 18.035156 54.523438 17.65625 54.960938 17.289062 55.347656 C 16.890625 55.769531 16.472656 56.164062 16.027344 56.535156 C 15.605469 56.894531 15.152344 57.199219 14.664062 57.457031 C 14.445312 57.570312 14.214844 57.660156 13.976562 57.726562 C 13.796875 57.777344 13.617188 57.800781 13.433594 57.800781 L 13.34375 57.800781 C 13.148438 57.789062 12.96875 57.738281 12.800781 57.644531 C 12.609375 57.535156 12.445312 57.402344 12.300781 57.234375 C 12.136719 57.042969 11.996094 56.839844 11.875 56.617188 L 11.777344 56.4375 L 11.726562 56.324219 L 11.691406 56.253906 C 11.667969 56.203125 11.644531 56.15625 11.625 56.105469 L 11.523438 55.863281 C 11.066406 54.695312 10.527344 53.558594 9.917969 52.464844 C 9.859375 52.355469 9.792969 52.253906 9.738281 52.152344 L 9.675781 52.050781 L 9.59375 51.917969 C 9.542969 51.828125 9.484375 51.738281 9.417969 51.648438 L 9.152344 51.257812 C 9.085938 51.167969 9.019531 51.078125 8.953125 50.996094 L 8.863281 50.875 C 8.8125 50.804688 8.753906 50.738281 8.707031 50.683594 L 8.550781 50.507812 C 8.515625 50.460938 8.472656 50.421875 8.433594 50.378906 C 8.414062 50.363281 8.398438 50.34375 8.378906 50.324219 L 8.320312 50.265625 C 8.28125 50.226562 8.242188 50.1875 8.199219 50.152344 L 8.011719 49.988281 L 7.808594 49.84375 C 7.664062 49.742188 7.5 49.671875 7.324219 49.640625 L 7.261719 49.902344 C 7.289062 49.914062 7.316406 49.925781 7.34375 49.945312 C 7.359375 49.957031 7.378906 49.96875 7.394531 49.984375 L 7.449219 50.027344 L 7.5625 50.136719 L 7.707031 50.296875 L 7.84375 50.476562 C 7.867188 50.511719 7.894531 50.550781 7.917969 50.589844 C 7.933594 50.609375 7.945312 50.632812 7.960938 50.652344 L 8.003906 50.71875 C 8.027344 50.757812 8.054688 50.796875 8.078125 50.839844 L 8.191406 51.039062 C 8.226562 51.097656 8.261719 51.160156 8.296875 51.234375 C 8.570312 51.769531 8.816406 52.316406 9.03125 52.875 C 9.414062 53.859375 9.78125 54.957031 10.195312 56.324219 L 10.285156 56.597656 C 10.304688 56.664062 10.328125 56.730469 10.351562 56.796875 L 10.382812 56.875 C 10.402344 56.929688 10.421875 56.980469 10.445312 57.035156 L 10.546875 57.273438 C 10.695312 57.609375 10.882812 57.917969 11.101562 58.210938 C 11.347656 58.535156 11.644531 58.804688 11.988281 59.019531 C 12.359375 59.25 12.757812 59.386719 13.1875 59.433594 C 13.304688 59.449219 13.421875 59.457031 13.542969 59.457031 C 13.824219 59.453125 14.105469 59.421875 14.382812 59.355469 C 14.738281 59.265625 15.085938 59.140625 15.417969 58.984375 C 16.03125 58.675781 16.601562 58.300781 17.125 57.859375 C 17.628906 57.4375 18.101562 56.988281 18.546875 56.503906 C 18.976562 56.027344 19.382812 55.527344 19.761719 55.007812 C 20.148438 54.484375 20.496094 53.941406 20.8125 53.375 C 20.882812 53.246094 20.960938 53.105469 21.042969 52.9375 C 21.125 52.773438 21.1875 52.632812 21.25 52.488281 C 21.371094 52.203125 21.492188 51.917969 21.613281 51.632812 C 21.734375 51.34375 21.847656 51.0625 21.96875 50.78125 C 22.324219 49.910156 22.660156 49.089844 23.070312 48.296875 C 23.335938 47.78125 23.648438 47.296875 24.011719 46.84375 Z M 24.011719 46.84375 " fill-opacity="1" fill-rule="nonzero"/><g clip-path="url(#6e40320b42)"><path fill="#18bcc7" d="M 31.152344 63.941406 L 31.503906 63.867188 L 32.085938 63.765625 L 32.378906 63.722656 C 32.523438 63.699219 32.671875 63.679688 32.816406 63.664062 L 32.957031 63.648438 C 33.136719 63.632812 33.339844 63.613281 33.546875 63.609375 L 33.734375 63.609375 C 33.765625 63.609375 33.792969 63.609375 33.824219 63.609375 L 33.847656 63.609375 C 33.929688 63.613281 34.011719 63.625 34.09375 63.644531 L 34.1875 63.390625 C 33.988281 63.304688 33.78125 63.25 33.570312 63.222656 C 33.355469 63.1875 33.140625 63.167969 32.949219 63.152344 L 32.886719 63.152344 C 32.707031 63.152344 32.53125 63.132812 32.363281 63.132812 L 32.03125 63.132812 L 31.421875 63.152344 L 31.054688 63.175781 C 30.875 63.1875 30.699219 63.199219 30.511719 63.21875 C 30.324219 63.238281 30.109375 63.257812 29.90625 63.28125 L 29.308594 63.355469 C 29.105469 63.378906 28.902344 63.414062 28.707031 63.441406 L 28.109375 63.535156 C 27.851562 63.578125 27.597656 63.625 27.339844 63.671875 L 26.917969 63.75 C 26.617188 63.808594 26.316406 63.875 26.011719 63.9375 L 25.597656 64.023438 L 25.472656 64.042969 C 25.425781 64.054688 25.378906 64.058594 25.332031 64.058594 L 25.085938 64.058594 L 25.023438 64.046875 C 24.988281 64.042969 24.957031 64.035156 24.921875 64.023438 L 24.898438 64.023438 C 24.871094 64.015625 24.84375 64.003906 24.820312 63.992188 L 24.769531 63.96875 L 24.722656 63.933594 C 24.699219 63.921875 24.675781 63.902344 24.65625 63.882812 L 24.644531 63.875 L 24.636719 63.875 C 24.613281 63.855469 24.589844 63.832031 24.566406 63.804688 L 24.523438 63.757812 L 24.445312 63.644531 L 24.421875 63.601562 C 24.269531 63.328125 24.167969 63.039062 24.117188 62.730469 C 23.992188 62.011719 23.960938 61.289062 24.027344 60.5625 C 24.078125 59.804688 24.179688 59.050781 24.328125 58.304688 C 24.472656 57.550781 24.65625 56.796875 24.871094 56.0625 C 24.960938 55.746094 25.066406 55.40625 25.214844 54.964844 C 25.339844 54.59375 25.472656 54.230469 25.609375 53.878906 C 25.882812 53.167969 26.199219 52.472656 26.550781 51.796875 C 26.894531 51.125 27.292969 50.492188 27.757812 49.902344 C 27.976562 49.625 28.21875 49.375 28.484375 49.144531 C 28.71875 48.933594 28.988281 48.765625 29.28125 48.648438 L 29.332031 48.628906 L 29.355469 48.628906 L 29.488281 48.589844 C 29.503906 48.585938 29.519531 48.585938 29.535156 48.589844 L 29.578125 48.589844 L 29.628906 48.578125 C 29.644531 48.578125 29.660156 48.578125 29.675781 48.578125 L 29.867188 48.578125 C 29.886719 48.578125 29.910156 48.582031 29.929688 48.589844 C 29.929688 48.589844 29.9375 48.589844 29.953125 48.605469 C 29.980469 48.632812 30 48.664062 30.015625 48.695312 C 30.074219 48.828125 30.117188 48.96875 30.140625 49.109375 C 30.203125 49.460938 30.242188 49.816406 30.261719 50.175781 L 30.261719 50.214844 C 30.269531 50.363281 30.28125 50.511719 30.289062 50.660156 C 30.304688 50.910156 30.320312 51.164062 30.339844 51.414062 C 30.386719 52.238281 30.542969 53.042969 30.804688 53.828125 C 30.949219 54.234375 31.15625 54.609375 31.417969 54.953125 C 31.679688 55.292969 31.996094 55.566406 32.371094 55.78125 L 32.527344 55.558594 C 32.238281 55.308594 32.003906 55.011719 31.824219 54.671875 C 31.648438 54.34375 31.527344 53.996094 31.449219 53.628906 C 31.375 53.257812 31.332031 52.882812 31.316406 52.503906 C 31.300781 52.148438 31.300781 51.769531 31.316406 51.34375 C 31.316406 51.109375 31.332031 50.871094 31.347656 50.636719 C 31.347656 50.476562 31.359375 50.320312 31.367188 50.160156 C 31.375 49.957031 31.378906 49.746094 31.378906 49.539062 C 31.378906 49.320312 31.367188 49.101562 31.34375 48.882812 C 31.324219 48.628906 31.265625 48.382812 31.175781 48.140625 C 31.117188 47.992188 31.039062 47.851562 30.941406 47.726562 C 30.824219 47.574219 30.683594 47.453125 30.515625 47.359375 C 30.351562 47.273438 30.179688 47.21875 29.996094 47.191406 C 29.890625 47.179688 29.78125 47.175781 29.671875 47.175781 L 29.570312 47.175781 C 29.53125 47.175781 29.488281 47.175781 29.449219 47.175781 L 29.332031 47.175781 C 29.285156 47.179688 29.234375 47.1875 29.1875 47.199219 L 28.976562 47.242188 L 28.902344 47.261719 L 28.816406 47.289062 C 28.355469 47.4375 27.929688 47.660156 27.542969 47.957031 C 27.1875 48.230469 26.859375 48.535156 26.566406 48.871094 C 26 49.523438 25.511719 50.222656 25.097656 50.980469 C 24.6875 51.707031 24.328125 52.453125 24.015625 53.226562 C 23.710938 53.984375 23.4375 54.769531 23.207031 55.5625 C 22.730469 57.164062 22.453125 58.792969 22.371094 60.460938 C 22.328125 61.332031 22.402344 62.195312 22.59375 63.050781 C 22.703125 63.53125 22.894531 63.976562 23.164062 64.386719 L 23.222656 64.476562 L 23.316406 64.589844 C 23.347656 64.628906 23.378906 64.667969 23.417969 64.710938 L 23.460938 64.753906 C 23.542969 64.839844 23.632812 64.917969 23.730469 64.988281 C 23.832031 65.070312 23.941406 65.136719 24.054688 65.195312 L 24.109375 65.226562 L 24.171875 65.253906 C 24.289062 65.304688 24.40625 65.34375 24.527344 65.371094 C 24.65625 65.40625 24.78125 65.425781 24.914062 65.433594 L 25.203125 65.433594 C 25.253906 65.433594 25.308594 65.429688 25.359375 65.421875 L 25.417969 65.421875 C 25.523438 65.410156 25.628906 65.390625 25.734375 65.367188 L 25.914062 65.320312 L 26.058594 65.277344 L 27.195312 64.941406 L 28.335938 64.621094 L 29.195312 64.394531 L 30.054688 64.179688 L 30.632812 64.046875 C 30.808594 64 30.980469 63.96875 31.152344 63.941406 Z M 31.152344 63.941406 " fill-opacity="1" fill-rule="nonzero"/></g><g clip-path="url(#81d7736a45)"><path fill="#18bcc7" d="M 41.703125 58.777344 C 41.507812 58.164062 41.285156 57.558594 41.027344 56.96875 C 40.773438 56.375 40.480469 55.800781 40.152344 55.242188 C 40.074219 55.113281 39.992188 54.972656 39.890625 54.820312 C 39.789062 54.664062 39.699219 54.535156 39.605469 54.414062 C 39.429688 54.164062 39.238281 53.914062 39.050781 53.664062 C 38.863281 53.417969 38.679688 53.175781 38.496094 52.933594 C 37.925781 52.1875 37.382812 51.480469 36.910156 50.726562 C 36.589844 50.230469 36.324219 49.707031 36.113281 49.15625 C 35.90625 48.59375 35.769531 48.011719 35.703125 47.414062 L 35.433594 47.414062 C 35.417969 47.570312 35.398438 47.726562 35.386719 47.882812 C 35.386719 47.988281 35.386719 48.09375 35.375 48.199219 C 35.375 48.25 35.375 48.304688 35.375 48.359375 C 35.371094 48.425781 35.371094 48.496094 35.375 48.566406 L 35.394531 48.886719 C 35.394531 48.917969 35.394531 48.945312 35.394531 48.976562 L 35.449219 49.332031 C 35.566406 49.972656 35.757812 50.589844 36.023438 51.183594 C 36.289062 51.765625 36.582031 52.328125 36.910156 52.875 C 37.074219 53.15625 37.238281 53.425781 37.394531 53.679688 C 37.546875 53.929688 37.71875 54.210938 37.882812 54.464844 C 38.042969 54.71875 38.203125 54.984375 38.363281 55.242188 L 38.363281 55.253906 C 38.445312 55.382812 38.511719 55.492188 38.578125 55.609375 C 38.644531 55.726562 38.722656 55.875 38.78125 55.988281 C 39.042969 56.507812 39.28125 57.039062 39.492188 57.585938 C 39.722656 58.195312 39.910156 58.742188 40.054688 59.253906 C 40.21875 59.8125 40.347656 60.375 40.441406 60.945312 C 40.539062 61.488281 40.574219 62.035156 40.550781 62.585938 C 40.535156 62.835938 40.5 63.078125 40.4375 63.320312 C 40.378906 63.527344 40.292969 63.722656 40.175781 63.902344 C 40.070312 64.0625 39.929688 64.191406 39.765625 64.289062 C 39.578125 64.398438 39.375 64.472656 39.164062 64.511719 C 38.945312 64.550781 38.730469 64.570312 38.511719 64.570312 L 38.414062 64.570312 L 38.207031 64.558594 L 38.082031 64.550781 L 38.003906 64.550781 C 37.949219 64.550781 37.894531 64.539062 37.84375 64.53125 L 37.582031 64.496094 C 36.339844 64.300781 35.09375 64.191406 33.835938 64.164062 L 33.199219 64.164062 C 33.09375 64.164062 32.988281 64.164062 32.878906 64.175781 L 32.40625 64.207031 C 32.296875 64.21875 32.1875 64.230469 32.082031 64.246094 L 31.933594 64.265625 C 31.847656 64.265625 31.753906 64.289062 31.6875 64.304688 L 31.460938 64.347656 C 31.402344 64.347656 31.347656 64.371094 31.28125 64.386719 L 31.207031 64.40625 L 31.128906 64.425781 C 31.074219 64.4375 31.019531 64.453125 30.96875 64.472656 L 30.734375 64.554688 L 30.503906 64.652344 C 30.34375 64.726562 30.203125 64.832031 30.082031 64.96875 L 30.277344 65.144531 C 30.300781 65.125 30.328125 65.109375 30.355469 65.097656 C 30.375 65.085938 30.394531 65.078125 30.417969 65.074219 L 30.480469 65.046875 L 30.632812 65.003906 L 30.847656 64.964844 L 31.074219 64.941406 C 31.117188 64.941406 31.164062 64.941406 31.207031 64.929688 L 31.746094 64.929688 C 31.8125 64.929688 31.882812 64.929688 31.957031 64.929688 C 32.554688 64.964844 33.152344 65.03125 33.746094 65.128906 C 34.789062 65.304688 35.917969 65.53125 37.304688 65.867188 L 37.589844 65.929688 C 37.65625 65.945312 37.726562 65.960938 37.792969 65.96875 L 37.875 65.984375 C 37.929688 65.996094 37.988281 66.003906 38.050781 66.011719 L 38.308594 66.046875 C 38.484375 66.0625 38.664062 66.074219 38.839844 66.074219 C 39.03125 66.074219 39.21875 66.0625 39.40625 66.039062 C 39.808594 65.992188 40.1875 65.875 40.546875 65.683594 C 40.929688 65.480469 41.253906 65.207031 41.511719 64.863281 C 41.753906 64.535156 41.929688 64.175781 42.042969 63.785156 C 42.148438 63.433594 42.21875 63.070312 42.246094 62.703125 C 42.292969 62.019531 42.257812 61.339844 42.144531 60.664062 C 42.039062 60.023438 41.890625 59.398438 41.703125 58.777344 Z M 41.703125 58.777344 " fill-opacity="1" fill-rule="nonzero"/></g><path fill="#18bcc7" d="M 54.898438 50.472656 C 54.953125 50.335938 55.011719 50.203125 55.078125 50.070312 L 55.136719 49.9375 C 55.210938 49.777344 55.296875 49.59375 55.398438 49.414062 C 55.414062 49.382812 55.433594 49.351562 55.453125 49.320312 L 55.496094 49.25 C 55.511719 49.222656 55.527344 49.199219 55.546875 49.175781 L 55.558594 49.15625 C 55.601562 49.085938 55.652344 49.019531 55.710938 48.964844 L 55.53125 48.75 C 55.359375 48.878906 55.207031 49.03125 55.074219 49.199219 C 54.9375 49.367188 54.8125 49.542969 54.699219 49.699219 L 54.671875 49.746094 C 54.570312 49.898438 54.464844 50.054688 54.375 50.214844 L 54.214844 50.480469 L 53.925781 51.011719 L 53.761719 51.335938 C 53.683594 51.496094 53.597656 51.664062 53.523438 51.828125 C 53.445312 51.996094 53.34375 52.195312 53.269531 52.382812 L 53.03125 52.941406 C 52.949219 53.128906 52.875 53.320312 52.800781 53.507812 L 52.582031 54.070312 C 52.488281 54.3125 52.402344 54.554688 52.308594 54.804688 C 52.261719 54.9375 52.214844 55.070312 52.164062 55.203125 C 52.0625 55.5 51.960938 55.796875 51.863281 56.089844 L 51.734375 56.480469 L 51.683594 56.597656 C 51.667969 56.644531 51.648438 56.6875 51.625 56.730469 C 51.617188 56.75 51.605469 56.769531 51.59375 56.796875 C 51.585938 56.8125 51.578125 56.824219 51.566406 56.835938 L 51.550781 56.863281 C 51.539062 56.875 51.53125 56.890625 51.523438 56.90625 C 51.515625 56.917969 51.507812 56.925781 51.5 56.9375 C 51.484375 56.953125 51.472656 56.96875 51.460938 56.984375 C 51.4375 57.011719 51.414062 57.035156 51.386719 57.058594 L 51.375 57.058594 C 51.355469 57.078125 51.335938 57.09375 51.308594 57.109375 L 51.261719 57.140625 L 51.210938 57.164062 C 51.1875 57.179688 51.160156 57.191406 51.132812 57.199219 L 51.109375 57.199219 C 51.078125 57.207031 51.046875 57.214844 51.015625 57.222656 L 50.953125 57.234375 L 50.765625 57.234375 C 50.453125 57.226562 50.148438 57.167969 49.859375 57.054688 C 49.175781 56.796875 48.539062 56.457031 47.945312 56.035156 C 47.316406 55.605469 46.71875 55.136719 46.148438 54.632812 C 45.574219 54.128906 45.015625 53.589844 44.492188 53.035156 C 44.261719 52.796875 44.019531 52.53125 43.714844 52.183594 C 43.457031 51.886719 43.210938 51.589844 42.980469 51.296875 C 42.503906 50.699219 42.0625 50.078125 41.65625 49.429688 C 41.257812 48.800781 40.921875 48.140625 40.652344 47.445312 C 40.523438 47.121094 40.429688 46.785156 40.363281 46.4375 C 40.304688 46.125 40.292969 45.8125 40.339844 45.496094 L 40.339844 45.445312 C 40.339844 45.4375 40.339844 45.429688 40.339844 45.421875 L 40.375 45.285156 C 40.378906 45.269531 40.382812 45.253906 40.390625 45.238281 C 40.394531 45.226562 40.398438 45.214844 40.402344 45.199219 C 40.402344 45.183594 40.417969 45.167969 40.421875 45.152344 C 40.425781 45.136719 40.433594 45.121094 40.441406 45.105469 L 40.476562 45.03125 C 40.496094 44.992188 40.511719 44.957031 40.523438 44.9375 C 40.535156 44.917969 40.550781 44.902344 40.5625 44.886719 C 40.570312 44.878906 40.582031 44.875 40.589844 44.875 C 40.613281 44.871094 40.636719 44.871094 40.660156 44.875 L 40.707031 44.875 C 40.851562 44.886719 40.992188 44.921875 41.128906 44.972656 C 41.464844 45.097656 41.792969 45.242188 42.109375 45.410156 L 42.148438 45.429688 L 42.546875 45.632812 C 42.769531 45.746094 42.992188 45.859375 43.222656 45.96875 C 43.96875 46.351562 44.75 46.628906 45.570312 46.800781 C 45.832031 46.847656 46.097656 46.871094 46.363281 46.875 C 46.527344 46.875 46.691406 46.863281 46.851562 46.839844 C 47.277344 46.785156 47.679688 46.652344 48.050781 46.4375 L 47.941406 46.191406 C 47.621094 46.300781 47.292969 46.351562 46.957031 46.355469 L 46.828125 46.355469 C 46.453125 46.339844 46.089844 46.269531 45.738281 46.148438 C 45.378906 46.027344 45.03125 45.875 44.699219 45.695312 C 44.386719 45.53125 44.058594 45.339844 43.699219 45.109375 C 43.496094 44.980469 43.296875 44.851562 43.089844 44.71875 L 42.699219 44.464844 C 42.519531 44.351562 42.34375 44.246094 42.164062 44.140625 C 41.976562 44.027344 41.78125 43.925781 41.582031 43.835938 C 41.351562 43.726562 41.109375 43.648438 40.859375 43.605469 C 40.699219 43.582031 40.539062 43.582031 40.378906 43.605469 C 40.191406 43.628906 40.011719 43.691406 39.847656 43.785156 C 39.691406 43.878906 39.554688 43.996094 39.441406 44.140625 C 39.375 44.226562 39.316406 44.316406 39.261719 44.410156 L 39.222656 44.480469 C 39.195312 44.523438 39.175781 44.566406 39.15625 44.609375 C 39.15625 44.628906 39.140625 44.644531 39.128906 44.667969 L 39.105469 44.714844 C 39.085938 44.757812 39.066406 44.804688 39.050781 44.851562 L 38.984375 45.058594 C 38.976562 45.078125 38.96875 45.101562 38.964844 45.128906 L 38.941406 45.214844 C 38.835938 45.691406 38.816406 46.167969 38.875 46.652344 C 38.929688 47.097656 39.027344 47.535156 39.167969 47.960938 C 39.441406 48.773438 39.796875 49.546875 40.234375 50.28125 C 40.65625 51 41.117188 51.691406 41.625 52.351562 C 42.125 53 42.664062 53.628906 43.230469 54.230469 C 44.371094 55.449219 45.636719 56.515625 47.035156 57.425781 C 47.765625 57.90625 48.546875 58.277344 49.382812 58.542969 C 49.78125 58.667969 50.1875 58.730469 50.601562 58.734375 C 50.675781 58.734375 50.75 58.734375 50.824219 58.734375 L 50.929688 58.734375 L 51.074219 58.714844 C 51.125 58.714844 51.175781 58.699219 51.234375 58.6875 L 51.289062 58.671875 C 51.53125 58.613281 51.761719 58.515625 51.972656 58.382812 L 52.027344 58.351562 L 52.082031 58.308594 C 52.179688 58.238281 52.273438 58.15625 52.359375 58.070312 C 52.453125 57.976562 52.535156 57.875 52.605469 57.765625 L 52.628906 57.738281 C 52.660156 57.695312 52.683594 57.652344 52.707031 57.609375 L 52.761719 57.515625 C 52.785156 57.46875 52.808594 57.421875 52.828125 57.375 L 52.851562 57.320312 C 52.894531 57.21875 52.933594 57.121094 52.960938 57.015625 L 53.011719 56.839844 L 53.050781 56.691406 L 53.335938 55.539062 L 53.636719 54.394531 L 53.875 53.539062 L 54.125 52.6875 L 54.304688 52.121094 C 54.351562 51.945312 54.410156 51.785156 54.46875 51.621094 L 54.582031 51.285156 L 54.789062 50.734375 Z M 54.898438 50.472656 " fill-opacity="1" fill-rule="nonzero"/><g clip-path="url(#c3710f7884)"><path fill="#18bcc7" d="M 60.53125 43.183594 C 60.371094 42.8125 60.152344 42.476562 59.875 42.175781 C 59.625 41.90625 59.347656 41.664062 59.042969 41.453125 C 58.476562 41.070312 57.871094 40.753906 57.230469 40.511719 C 56.617188 40.277344 55.996094 40.085938 55.355469 39.9375 C 54.730469 39.792969 54.09375 39.683594 53.457031 39.605469 C 52.847656 39.53125 52.238281 39.492188 51.628906 39.488281 L 51.527344 39.488281 C 51.378906 39.488281 51.214844 39.488281 51.03125 39.5 C 50.847656 39.511719 50.691406 39.523438 50.539062 39.539062 C 50.230469 39.570312 49.921875 39.605469 49.613281 39.640625 C 49.308594 39.675781 49.003906 39.714844 48.699219 39.75 C 47.769531 39.867188 46.886719 39.972656 45.992188 40.003906 C 45.882812 40.003906 45.769531 40.003906 45.65625 40.003906 C 45.179688 40.003906 44.707031 39.96875 44.234375 39.886719 C 43.644531 39.78125 43.074219 39.601562 42.527344 39.355469 L 42.390625 39.585938 C 42.511719 39.679688 42.640625 39.777344 42.769531 39.867188 C 42.855469 39.929688 42.945312 39.980469 43.035156 40.035156 L 43.171875 40.121094 C 43.230469 40.15625 43.289062 40.1875 43.347656 40.21875 L 43.644531 40.363281 C 43.667969 40.375 43.695312 40.390625 43.722656 40.398438 L 44.054688 40.53125 C 44.667969 40.757812 45.296875 40.90625 45.945312 40.976562 C 46.578125 41.046875 47.214844 41.078125 47.847656 41.074219 L 47.957031 41.074219 C 48.25 41.074219 48.539062 41.074219 48.785156 41.0625 C 49.09375 41.0625 49.402344 41.054688 49.710938 41.042969 C 50.015625 41.03125 50.320312 41.023438 50.625 41.019531 L 51.058594 41.019531 C 51.21875 41.019531 51.355469 41.027344 51.484375 41.035156 C 52.070312 41.074219 52.652344 41.140625 53.230469 41.234375 C 53.875 41.34375 54.441406 41.460938 54.957031 41.589844 C 55.519531 41.726562 56.070312 41.902344 56.609375 42.113281 C 57.128906 42.300781 57.617188 42.546875 58.078125 42.851562 C 58.289062 42.984375 58.480469 43.140625 58.65625 43.316406 C 58.804688 43.46875 58.929688 43.640625 59.027344 43.835938 C 59.109375 44.007812 59.152344 44.191406 59.152344 44.386719 C 59.152344 44.605469 59.117188 44.816406 59.042969 45.019531 C 58.953125 45.253906 58.84375 45.480469 58.707031 45.695312 L 58.597656 45.871094 L 58.523438 45.976562 L 58.476562 46.042969 C 58.449219 46.082031 58.414062 46.125 58.382812 46.167969 L 58.21875 46.375 C 57.421875 47.347656 56.695312 48.367188 56.035156 49.4375 C 55.972656 49.542969 55.914062 49.648438 55.859375 49.75 L 55.800781 49.855469 L 55.722656 49.992188 C 55.671875 50.082031 55.621094 50.167969 55.570312 50.273438 L 55.363281 50.699219 C 55.3125 50.796875 55.273438 50.894531 55.230469 50.996094 C 55.210938 51.042969 55.191406 51.089844 55.171875 51.132812 C 55.136719 51.214844 55.105469 51.296875 55.082031 51.363281 L 55.003906 51.585938 C 54.980469 51.640625 54.964844 51.695312 54.949219 51.75 C 54.949219 51.773438 54.9375 51.796875 54.925781 51.828125 L 54.90625 51.902344 C 54.890625 51.957031 54.875 52.011719 54.863281 52.0625 L 54.816406 52.308594 L 54.789062 52.554688 C 54.765625 52.738281 54.785156 52.914062 54.84375 53.085938 L 55.105469 53.011719 C 55.101562 52.980469 55.101562 52.953125 55.105469 52.921875 C 55.101562 52.898438 55.101562 52.878906 55.105469 52.855469 C 55.105469 52.855469 55.117188 52.789062 55.117188 52.785156 L 55.15625 52.636719 L 55.226562 52.429688 L 55.320312 52.222656 C 55.339844 52.183594 55.359375 52.140625 55.382812 52.101562 C 55.402344 52.0625 55.410156 52.054688 55.417969 52.03125 C 55.429688 52.011719 55.445312 51.988281 55.453125 51.964844 C 55.464844 51.941406 55.496094 51.882812 55.527344 51.839844 L 55.640625 51.644531 C 55.675781 51.585938 55.714844 51.519531 55.757812 51.464844 C 56.089844 50.964844 56.449219 50.484375 56.835938 50.023438 C 57.507812 49.207031 58.28125 48.351562 59.277344 47.324219 L 59.472656 47.113281 C 59.519531 47.0625 59.566406 47.011719 59.609375 46.953125 L 59.664062 46.890625 C 59.703125 46.847656 59.742188 46.804688 59.777344 46.757812 L 59.933594 46.550781 C 60.152344 46.257812 60.332031 45.945312 60.476562 45.609375 C 60.644531 45.230469 60.738281 44.839844 60.753906 44.425781 C 60.769531 43.996094 60.699219 43.582031 60.53125 43.183594 Z M 60.53125 43.183594 " fill-opacity="1" fill-rule="nonzero"/></g><g clip-path="url(#4f444861a3)"><path fill="#18bcc7" d="M 56.398438 26.15625 L 56.003906 25.714844 C 55.882812 25.582031 55.765625 25.449219 55.648438 25.316406 L 55.429688 25.039062 L 55.058594 24.585938 L 54.882812 24.347656 C 54.792969 24.234375 54.703125 24.113281 54.617188 23.992188 L 54.535156 23.878906 C 54.433594 23.730469 54.320312 23.5625 54.214844 23.382812 C 54.199219 23.355469 54.183594 23.324219 54.164062 23.292969 C 54.164062 23.292969 54.132812 23.234375 54.125 23.21875 C 54.113281 23.199219 54.097656 23.167969 54.085938 23.140625 L 54.074219 23.117188 C 54.039062 23.042969 54.007812 22.96875 53.984375 22.890625 L 53.71875 22.929688 C 53.742188 23.144531 53.792969 23.351562 53.871094 23.550781 C 53.945312 23.753906 54.035156 23.953125 54.113281 24.125 L 54.140625 24.179688 C 54.21875 24.339844 54.304688 24.507812 54.394531 24.667969 L 54.542969 24.9375 L 54.855469 25.46875 L 55.054688 25.773438 C 55.152344 25.925781 55.253906 26.082031 55.359375 26.230469 C 55.464844 26.375 55.589844 26.5625 55.714844 26.726562 L 56.066406 27.210938 C 56.1875 27.378906 56.316406 27.542969 56.4375 27.695312 L 56.808594 28.171875 C 56.972656 28.375 57.140625 28.578125 57.304688 28.777344 L 57.578125 29.105469 C 57.78125 29.34375 57.984375 29.574219 58.1875 29.816406 L 58.464844 30.128906 L 58.542969 30.230469 C 58.574219 30.265625 58.601562 30.304688 58.625 30.347656 C 58.636719 30.367188 58.648438 30.386719 58.667969 30.414062 C 58.675781 30.425781 58.683594 30.4375 58.6875 30.453125 L 58.699219 30.480469 L 58.722656 30.527344 C 58.730469 30.539062 58.738281 30.550781 58.742188 30.5625 C 58.742188 30.582031 58.753906 30.601562 58.761719 30.621094 C 58.773438 30.652344 58.78125 30.6875 58.789062 30.722656 L 58.789062 30.746094 C 58.792969 30.773438 58.792969 30.800781 58.789062 30.828125 C 58.789062 30.847656 58.789062 30.867188 58.789062 30.886719 L 58.789062 30.945312 C 58.789062 30.972656 58.785156 31 58.777344 31.027344 L 58.777344 31.054688 C 58.773438 31.085938 58.761719 31.117188 58.75 31.148438 C 58.75 31.167969 58.738281 31.1875 58.730469 31.207031 L 58.671875 31.328125 L 58.644531 31.371094 C 58.480469 31.636719 58.277344 31.867188 58.035156 32.066406 C 57.464844 32.523438 56.851562 32.902344 56.183594 33.199219 C 55.496094 33.527344 54.792969 33.804688 54.066406 34.039062 C 53.339844 34.28125 52.59375 34.488281 51.847656 34.660156 C 51.523438 34.738281 51.175781 34.8125 50.71875 34.898438 C 50.335938 34.96875 49.953125 35.03125 49.582031 35.078125 C 48.824219 35.1875 48.066406 35.25 47.300781 35.273438 C 47.167969 35.273438 47.03125 35.273438 46.894531 35.273438 C 46.285156 35.277344 45.683594 35.230469 45.082031 35.132812 C 44.734375 35.078125 44.398438 34.992188 44.066406 34.871094 C 43.765625 34.765625 43.492188 34.613281 43.242188 34.414062 L 43.203125 34.378906 L 43.183594 34.363281 L 43.082031 34.265625 C 43.074219 34.253906 43.0625 34.242188 43.054688 34.230469 C 43.046875 34.21875 43.035156 34.207031 43.027344 34.199219 C 43.015625 34.183594 43.003906 34.171875 42.992188 34.15625 C 42.980469 34.144531 42.972656 34.132812 42.964844 34.121094 L 42.917969 34.046875 C 42.894531 34.011719 42.871094 33.980469 42.859375 33.960938 C 42.847656 33.941406 42.84375 33.921875 42.839844 33.902344 C 42.835938 33.890625 42.835938 33.882812 42.839844 33.871094 C 42.847656 33.835938 42.867188 33.804688 42.886719 33.773438 C 42.972656 33.65625 43.074219 33.550781 43.1875 33.460938 C 43.464844 33.234375 43.753906 33.027344 44.058594 32.835938 L 44.097656 32.8125 L 44.46875 32.570312 C 44.679688 32.4375 44.890625 32.300781 45.101562 32.160156 C 45.8125 31.710938 46.449219 31.175781 47.011719 30.550781 C 47.296875 30.226562 47.523438 29.863281 47.695312 29.46875 C 47.863281 29.070312 47.949219 28.65625 47.953125 28.226562 L 47.683594 28.199219 C 47.605469 28.570312 47.464844 28.917969 47.257812 29.238281 C 47.054688 29.554688 46.8125 29.832031 46.53125 30.074219 C 46.242188 30.324219 45.9375 30.546875 45.613281 30.742188 C 45.3125 30.929688 44.980469 31.113281 44.601562 31.304688 C 44.390625 31.417969 44.179688 31.523438 43.960938 31.632812 L 43.539062 31.84375 C 43.359375 31.9375 43.167969 32.035156 42.992188 32.136719 C 42.765625 32.265625 42.59375 32.371094 42.433594 32.492188 C 42.222656 32.636719 42.035156 32.804688 41.871094 33 C 41.765625 33.125 41.683594 33.261719 41.621094 33.410156 C 41.546875 33.585938 41.511719 33.769531 41.511719 33.957031 C 41.515625 34.140625 41.550781 34.320312 41.617188 34.492188 C 41.660156 34.589844 41.707031 34.6875 41.761719 34.78125 L 41.800781 34.851562 C 41.824219 34.894531 41.847656 34.9375 41.878906 34.976562 L 41.914062 35.027344 L 41.945312 35.070312 C 41.972656 35.109375 42 35.148438 42.035156 35.1875 L 42.179688 35.347656 C 42.191406 35.367188 42.210938 35.386719 42.226562 35.402344 L 42.292969 35.464844 C 42.648438 35.796875 43.050781 36.058594 43.5 36.25 C 43.914062 36.425781 44.339844 36.5625 44.777344 36.65625 C 45.613281 36.835938 46.457031 36.921875 47.3125 36.917969 L 47.4375 36.917969 C 48.226562 36.914062 49.015625 36.859375 49.800781 36.761719 C 50.613281 36.660156 51.429688 36.511719 52.238281 36.328125 C 53.863281 35.964844 55.417969 35.410156 56.910156 34.671875 C 57.695312 34.28125 58.410156 33.796875 59.0625 33.210938 C 59.425781 32.878906 59.722656 32.496094 59.949219 32.058594 L 59.996094 31.964844 L 60.050781 31.828125 C 60.070312 31.78125 60.089844 31.734375 60.109375 31.679688 L 60.125 31.621094 C 60.160156 31.507812 60.183594 31.386719 60.199219 31.265625 C 60.21875 31.140625 60.226562 31.011719 60.222656 30.878906 L 60.222656 30.753906 C 60.195312 30.496094 60.128906 30.253906 60.019531 30.023438 L 60.003906 29.988281 C 59.980469 29.9375 59.957031 29.894531 59.933594 29.855469 C 59.910156 29.816406 59.878906 29.761719 59.878906 29.761719 C 59.851562 29.71875 59.824219 29.671875 59.792969 29.632812 L 59.753906 29.582031 C 59.691406 29.496094 59.625 29.414062 59.550781 29.335938 L 59.425781 29.203125 L 59.316406 29.097656 L 58.46875 28.269531 L 57.632812 27.429688 Z M 56.398438 26.15625 " fill-opacity="1" fill-rule="nonzero"/></g><path fill="#18bcc7" d="M 39.019531 29.40625 L 39.148438 29.640625 C 39.292969 29.582031 39.4375 29.519531 39.585938 29.453125 C 39.679688 29.410156 39.773438 29.359375 39.863281 29.308594 L 40.003906 29.234375 C 40.070312 29.203125 40.125 29.164062 40.183594 29.128906 L 40.453125 28.949219 L 40.527344 28.902344 L 40.808594 28.679688 C 41.3125 28.265625 41.761719 27.796875 42.148438 27.273438 C 42.527344 26.761719 42.875 26.226562 43.195312 25.675781 C 43.371094 25.394531 43.523438 25.109375 43.660156 24.863281 C 43.808594 24.59375 43.960938 24.324219 44.109375 24.054688 C 44.253906 23.785156 44.402344 23.523438 44.554688 23.246094 C 44.628906 23.113281 44.695312 22.996094 44.765625 22.878906 C 44.839844 22.757812 44.925781 22.625 44.996094 22.523438 C 45.324219 22.039062 45.679688 21.566406 46.050781 21.121094 C 46.46875 20.617188 46.855469 20.1875 47.234375 19.8125 C 47.636719 19.394531 48.066406 19.007812 48.519531 18.648438 C 48.945312 18.300781 49.40625 18.003906 49.898438 17.761719 C 50.121094 17.652344 50.355469 17.566406 50.59375 17.503906 C 50.757812 17.460938 50.925781 17.441406 51.097656 17.4375 C 51.144531 17.4375 51.1875 17.4375 51.226562 17.4375 C 51.421875 17.453125 51.601562 17.511719 51.769531 17.609375 C 51.957031 17.71875 52.117188 17.855469 52.257812 18.023438 C 52.417969 18.21875 52.554688 18.429688 52.667969 18.652344 L 52.761719 18.828125 C 52.78125 18.867188 52.796875 18.90625 52.816406 18.945312 L 52.847656 19.019531 C 52.871094 19.066406 52.890625 19.117188 52.910156 19.164062 L 53.007812 19.410156 C 53.441406 20.589844 53.953125 21.734375 54.542969 22.847656 C 54.597656 22.953125 54.660156 23.058594 54.722656 23.160156 L 54.78125 23.261719 C 54.808594 23.308594 54.832031 23.351562 54.859375 23.398438 C 54.910156 23.488281 54.964844 23.574219 55.027344 23.671875 L 55.285156 24.066406 C 55.347656 24.15625 55.410156 24.246094 55.476562 24.332031 L 55.566406 24.453125 C 55.617188 24.523438 55.671875 24.59375 55.71875 24.648438 L 55.871094 24.824219 C 55.90625 24.871094 55.945312 24.914062 55.988281 24.957031 L 56.039062 25.011719 C 56.058594 25.03125 56.078125 25.050781 56.09375 25.070312 C 56.132812 25.109375 56.171875 25.148438 56.214844 25.1875 L 56.398438 25.351562 L 56.597656 25.503906 C 56.742188 25.609375 56.902344 25.679688 57.078125 25.714844 L 57.148438 25.453125 C 57.117188 25.441406 57.09375 25.429688 57.066406 25.410156 L 57.015625 25.371094 L 56.960938 25.328125 L 56.847656 25.214844 L 56.710938 25.050781 L 56.578125 24.871094 C 56.550781 24.835938 56.53125 24.796875 56.507812 24.757812 C 56.484375 24.71875 56.476562 24.710938 56.464844 24.691406 C 56.453125 24.671875 56.4375 24.648438 56.421875 24.625 C 56.394531 24.585938 56.371094 24.542969 56.351562 24.5 L 56.242188 24.300781 C 56.207031 24.242188 56.171875 24.175781 56.140625 24.105469 C 55.875 23.566406 55.636719 23.015625 55.429688 22.449219 C 55.074219 21.457031 54.71875 20.355469 54.335938 18.980469 L 54.253906 18.703125 C 54.230469 18.636719 54.210938 18.566406 54.1875 18.5 L 54.160156 18.421875 C 54.140625 18.367188 54.121094 18.3125 54.101562 18.261719 L 54.011719 18.011719 C 53.871094 17.675781 53.695312 17.359375 53.480469 17.066406 C 53.242188 16.738281 52.953125 16.460938 52.617188 16.238281 C 52.25 16.003906 51.855469 15.855469 51.425781 15.796875 C 51.285156 15.78125 51.140625 15.769531 51 15.769531 C 50.738281 15.773438 50.480469 15.800781 50.226562 15.855469 C 49.863281 15.9375 49.515625 16.054688 49.179688 16.210938 C 48.5625 16.503906 47.984375 16.867188 47.449219 17.296875 C 46.941406 17.707031 46.460938 18.148438 46.011719 18.621094 C 45.570312 19.089844 45.15625 19.582031 44.769531 20.09375 C 44.375 20.609375 44.015625 21.144531 43.6875 21.703125 C 43.613281 21.832031 43.535156 21.972656 43.449219 22.136719 C 43.359375 22.304688 43.296875 22.441406 43.230469 22.582031 C 43.101562 22.867188 42.976562 23.148438 42.851562 23.433594 C 42.726562 23.714844 42.605469 23.996094 42.484375 24.277344 C 42.109375 25.136719 41.757812 25.953125 41.332031 26.738281 C 41.054688 27.257812 40.726562 27.742188 40.347656 28.195312 C 39.953125 28.652344 39.511719 29.058594 39.019531 29.40625 Z M 39.019531 29.40625 " fill-opacity="1" fill-rule="nonzero"/><path stroke-linecap="butt" transform="matrix(0, -0.748005, 0.748005, 0, 66.213787, 66.087822)" fill="none" stroke-linejoin="miter" d="M 0.00251956 1.50019 L 76.440189 1.50019 " stroke="#000000" stroke-width="3" stroke-opacity="1" stroke-miterlimit="4"/><g fill="#000000" fill-opacity="1"><g transform="translate(74.109573, 29.588825)"><g><path d="M 8.75 -9.125 L 5.34375 -9.125 L 5.34375 0 L 3.53125 0 L 3.53125 -9.125 L 0.140625 -9.125 L 0.140625 -10.75 L 8.75 -10.75 Z M 8.75 -9.125 "/></g></g></g><g fill="#000000" fill-opacity="1"><g transform="translate(84.263436, 29.588825)"><g><path d="M 8.359375 -2.421875 L 2.9375 -2.421875 L 1.90625 0 L 0.015625 0 L 4.765625 -10.75 L 6.625 -10.75 L 11.3125 0 L 9.390625 0 Z M 7.671875 -4.046875 L 5.640625 -8.8125 L 3.609375 -4.046875 Z M 7.671875 -4.046875 "/></g></g></g><g fill="#000000" fill-opacity="1"><g transform="translate(96.859697, 29.588825)"><g><path d="M 1.40625 -10.75 L 5.703125 -10.75 C 7.046875 -10.75 8.085938 -10.425781 8.828125 -9.78125 C 9.578125 -9.144531 9.953125 -8.242188 9.953125 -7.078125 C 9.953125 -5.859375 9.578125 -4.910156 8.828125 -4.234375 C 8.085938 -3.566406 7.046875 -3.234375 5.703125 -3.234375 L 3.21875 -3.234375 L 3.21875 0 L 1.40625 0 Z M 3.21875 -9.125 L 3.21875 -4.875 L 5.625 -4.875 C 7.351562 -4.875 8.21875 -5.59375 8.21875 -7.03125 C 8.21875 -8.425781 7.351562 -9.125 5.625 -9.125 Z M 3.21875 -9.125 "/></g></g></g><g fill="#000000" fill-opacity="1"><g transform="translate(108.457494, 29.588825)"><g><path d="M 1.40625 -10.75 L 5.703125 -10.75 C 7.046875 -10.75 8.085938 -10.425781 8.828125 -9.78125 C 9.578125 -9.144531 9.953125 -8.242188 9.953125 -7.078125 C 9.953125 -5.859375 9.578125 -4.910156 8.828125 -4.234375 C 8.085938 -3.566406 7.046875 -3.234375 5.703125 -3.234375 L 3.21875 -3.234375 L 3.21875 0 L 1.40625 0 Z M 3.21875 -9.125 L 3.21875 -4.875 L 5.625 -4.875 C 7.351562 -4.875 8.21875 -5.59375 8.21875 -7.03125 C 8.21875 -8.425781 7.351562 -9.125 5.625 -9.125 Z M 3.21875 -9.125 "/></g></g></g><g fill="#000000" fill-opacity="1"><g transform="translate(120.055287, 29.588825)"><g><path d="M 3.21875 0 L 1.40625 0 L 1.40625 -10.75 L 3.21875 -10.75 Z M 3.21875 0 "/></g></g></g><g fill="#000000" fill-opacity="1"><g transform="translate(125.954142, 29.588825)"><g><path d="M 10.734375 0 L 8.953125 0 L 3.21875 -7.703125 L 3.21875 0 L 1.40625 0 L 1.40625 -10.75 L 3.1875 -10.75 L 8.953125 -3.03125 L 8.953125 -10.75 L 10.734375 -10.75 Z M 10.734375 0 "/></g></g></g><g fill="#000000" fill-opacity="1"><g transform="translate(139.379903, 29.588825)"><g><path d="M 8.765625 -5.28125 L 10.359375 -5.28125 L 10.359375 -1.328125 C 9.796875 -0.898438 9.140625 -0.554688 8.390625 -0.296875 C 7.640625 -0.046875 6.898438 0.078125 6.171875 0.078125 C 4.585938 0.078125 3.25 -0.445312 2.15625 -1.5 C 1.0625 -2.550781 0.515625 -3.84375 0.515625 -5.375 C 0.515625 -6.914062 1.066406 -8.203125 2.171875 -9.234375 C 3.285156 -10.273438 4.65625 -10.796875 6.28125 -10.796875 C 7.039062 -10.796875 7.785156 -10.660156 8.515625 -10.390625 C 9.242188 -10.117188 9.875 -9.753906 10.40625 -9.296875 L 9.390625 -7.953125 C 8.503906 -8.773438 7.46875 -9.1875 6.28125 -9.1875 C 5.1875 -9.1875 4.257812 -8.816406 3.5 -8.078125 C 2.738281 -7.335938 2.359375 -6.4375 2.359375 -5.375 C 2.359375 -4.300781 2.738281 -3.394531 3.5 -2.65625 C 4.269531 -1.914062 5.203125 -1.546875 6.296875 -1.546875 C 7.128906 -1.546875 7.953125 -1.789062 8.765625 -2.28125 Z M 8.765625 -5.28125 "/></g></g></g><g fill="#000000" fill-opacity="1"><g transform="translate(77.011439, 59.907631)"><g><path d="M 12.46875 0 L 10.609375 0 L 8.0625 -8.390625 L 5.484375 0 L 3.609375 0 L 0.046875 -10.75 L 2 -10.75 L 4.609375 -2.015625 L 7.203125 -10.734375 L 8.984375 -10.75 L 11.59375 -2.015625 L 14.1875 -10.75 L 16.0625 -10.75 Z M 12.46875 0 "/></g></g></g><g fill="#000000" fill-opacity="1"><g transform="translate(94.292834, 59.907631)"><g><path d="M 9.09375 -9.125 L 3.21875 -9.125 L 3.21875 -6.21875 L 8.484375 -6.21875 L 8.484375 -4.59375 L 3.21875 -4.59375 L 3.21875 -1.625 L 9.28125 -1.625 L 9.28125 0 L 1.40625 0 L 1.40625 -10.75 L 9.09375 -10.75 Z M 9.09375 -9.125 "/></g></g></g><g fill="#000000" fill-opacity="1"><g transform="translate(105.737039, 59.907631)"><g><path d="M 3.21875 -1.640625 L 7.875 -1.640625 L 7.875 0 L 1.40625 0 L 1.40625 -10.75 L 3.21875 -10.75 Z M 3.21875 -1.640625 "/></g></g></g><g fill="#000000" fill-opacity="1"><g transform="translate(115.307199, 59.907631)"><g><path d="M 3.21875 -1.640625 L 7.875 -1.640625 L 7.875 0 L 1.40625 0 L 1.40625 -10.75 L 3.21875 -10.75 Z M 3.21875 -1.640625 "/></g></g></g><g fill="#000000" fill-opacity="1"><g transform="translate(124.877356, 59.907631)"><g><path d="M 10.734375 0 L 8.953125 0 L 3.21875 -7.703125 L 3.21875 0 L 1.40625 0 L 1.40625 -10.75 L 3.1875 -10.75 L 8.953125 -3.03125 L 8.953125 -10.75 L 10.734375 -10.75 Z M 10.734375 0 "/></g></g></g><g fill="#000000" fill-opacity="1"><g transform="translate(138.410663, 59.907631)"><g><path d="M 9.09375 -9.125 L 3.21875 -9.125 L 3.21875 -6.21875 L 8.484375 -6.21875 L 8.484375 -4.59375 L 3.21875 -4.59375 L 3.21875 -1.625 L 9.28125 -1.625 L 9.28125 0 L 1.40625 0 L 1.40625 -10.75 L 9.09375 -10.75 Z M 9.09375 -9.125 "/></g></g></g><g fill="#000000" fill-opacity="1"><g transform="translate(149.854866, 59.907631)"><g><path d="M 4.953125 -10.828125 C 6.335938 -10.828125 7.585938 -10.457031 8.703125 -9.71875 L 7.953125 -8.125 C 6.859375 -8.789062 5.8125 -9.125 4.8125 -9.125 C 4.269531 -9.125 3.84375 -9.023438 3.53125 -8.828125 C 3.21875 -8.640625 3.0625 -8.363281 3.0625 -8 C 3.0625 -7.644531 3.203125 -7.34375 3.484375 -7.09375 C 3.773438 -6.84375 4.132812 -6.65625 4.5625 -6.53125 C 4.988281 -6.414062 5.453125 -6.269531 5.953125 -6.09375 C 6.460938 -5.914062 6.929688 -5.722656 7.359375 -5.515625 C 7.785156 -5.316406 8.140625 -5.003906 8.421875 -4.578125 C 8.703125 -4.160156 8.84375 -3.648438 8.84375 -3.046875 C 8.84375 -2.097656 8.46875 -1.34375 7.71875 -0.78125 C 6.96875 -0.21875 5.992188 0.0625 4.796875 0.0625 C 3.972656 0.0625 3.175781 -0.0859375 2.40625 -0.390625 C 1.644531 -0.703125 0.976562 -1.117188 0.40625 -1.640625 L 1.1875 -3.203125 C 1.726562 -2.703125 2.320312 -2.316406 2.96875 -2.046875 C 3.625 -1.773438 4.242188 -1.640625 4.828125 -1.640625 C 5.460938 -1.640625 5.953125 -1.753906 6.296875 -1.984375 C 6.648438 -2.210938 6.828125 -2.535156 6.828125 -2.953125 C 6.828125 -3.316406 6.679688 -3.625 6.390625 -3.875 C 6.109375 -4.125 5.753906 -4.304688 5.328125 -4.421875 C 4.898438 -4.546875 4.429688 -4.691406 3.921875 -4.859375 C 3.421875 -5.023438 2.957031 -5.203125 2.53125 -5.390625 C 2.101562 -5.585938 1.742188 -5.894531 1.453125 -6.3125 C 1.171875 -6.726562 1.03125 -7.234375 1.03125 -7.828125 C 1.03125 -8.742188 1.382812 -9.472656 2.09375 -10.015625 C 2.8125 -10.554688 3.765625 -10.828125 4.953125 -10.828125 Z M 4.953125 -10.828125 "/></g></g></g><g fill="#000000" fill-opacity="1"><g transform="translate(160.776797, 59.907631)"><g><path d="M 4.953125 -10.828125 C 6.335938 -10.828125 7.585938 -10.457031 8.703125 -9.71875 L 7.953125 -8.125 C 6.859375 -8.789062 5.8125 -9.125 4.8125 -9.125 C 4.269531 -9.125 3.84375 -9.023438 3.53125 -8.828125 C 3.21875 -8.640625 3.0625 -8.363281 3.0625 -8 C 3.0625 -7.644531 3.203125 -7.34375 3.484375 -7.09375 C 3.773438 -6.84375 4.132812 -6.65625 4.5625 -6.53125 C 4.988281 -6.414062 5.453125 -6.269531 5.953125 -6.09375 C 6.460938 -5.914062 6.929688 -5.722656 7.359375 -5.515625 C 7.785156 -5.316406 8.140625 -5.003906 8.421875 -4.578125 C 8.703125 -4.160156 8.84375 -3.648438 8.84375 -3.046875 C 8.84375 -2.097656 8.46875 -1.34375 7.71875 -0.78125 C 6.96875 -0.21875 5.992188 0.0625 4.796875 0.0625 C 3.972656 0.0625 3.175781 -0.0859375 2.40625 -0.390625 C 1.644531 -0.703125 0.976562 -1.117188 0.40625 -1.640625 L 1.1875 -3.203125 C 1.726562 -2.703125 2.320312 -2.316406 2.96875 -2.046875 C 3.625 -1.773438 4.242188 -1.640625 4.828125 -1.640625 C 5.460938 -1.640625 5.953125 -1.753906 6.296875 -1.984375 C 6.648438 -2.210938 6.828125 -2.535156 6.828125 -2.953125 C 6.828125 -3.316406 6.679688 -3.625 6.390625 -3.875 C 6.109375 -4.125 5.753906 -4.304688 5.328125 -4.421875 C 4.898438 -4.546875 4.429688 -4.691406 3.921875 -4.859375 C 3.421875 -5.023438 2.957031 -5.203125 2.53125 -5.390625 C 2.101562 -5.585938 1.742188 -5.894531 1.453125 -6.3125 C 1.171875 -6.726562 1.03125 -7.234375 1.03125 -7.828125 C 1.03125 -8.742188 1.382812 -9.472656 2.09375 -10.015625 C 2.8125 -10.554688 3.765625 -10.828125 4.953125 -10.828125 Z M 4.953125 -10.828125 "/></g></g></g><g fill="#000000" fill-opacity="1"><g transform="translate(76.263433, 44.889445)"><g><path d="M 3.21875 0 L 1.40625 0 L 1.40625 -10.75 L 3.21875 -10.75 Z M 3.21875 0 "/></g></g></g><g fill="#000000" fill-opacity="1"><g transform="translate(82.162289, 44.889445)"><g><path d="M 10.734375 0 L 8.953125 0 L 3.21875 -7.703125 L 3.21875 0 L 1.40625 0 L 1.40625 -10.75 L 3.1875 -10.75 L 8.953125 -3.03125 L 8.953125 -10.75 L 10.734375 -10.75 Z M 10.734375 0 "/></g></g></g><g fill="#000000" fill-opacity="1"><g transform="translate(95.588052, 44.889445)"><g><path d="M 8.75 -9.125 L 5.34375 -9.125 L 5.34375 0 L 3.53125 0 L 3.53125 -9.125 L 0.140625 -9.125 L 0.140625 -10.75 L 8.75 -10.75 Z M 8.75 -9.125 "/></g></g></g><g fill="#000000" fill-opacity="1"><g transform="translate(105.741915, 44.889445)"><g><path d="M 2.15625 -9.234375 C 3.257812 -10.273438 4.613281 -10.796875 6.21875 -10.796875 C 7.820312 -10.796875 9.171875 -10.273438 10.265625 -9.234375 C 11.367188 -8.203125 11.921875 -6.914062 11.921875 -5.375 C 11.921875 -3.84375 11.367188 -2.550781 10.265625 -1.5 C 9.171875 -0.445312 7.820312 0.078125 6.21875 0.078125 C 4.613281 0.078125 3.257812 -0.445312 2.15625 -1.5 C 1.0625 -2.550781 0.515625 -3.84375 0.515625 -5.375 C 0.515625 -6.914062 1.0625 -8.203125 2.15625 -9.234375 Z M 6.234375 -9.171875 C 5.171875 -9.171875 4.257812 -8.800781 3.5 -8.0625 C 2.738281 -7.332031 2.359375 -6.4375 2.359375 -5.375 C 2.359375 -4.3125 2.738281 -3.40625 3.5 -2.65625 C 4.269531 -1.914062 5.179688 -1.546875 6.234375 -1.546875 C 7.285156 -1.546875 8.1875 -1.914062 8.9375 -2.65625 C 9.6875 -3.40625 10.0625 -4.3125 10.0625 -5.375 C 10.0625 -6.4375 9.6875 -7.332031 8.9375 -8.0625 C 8.1875 -8.800781 7.285156 -9.171875 6.234375 -9.171875 Z M 6.234375 -9.171875 "/></g></g></g></svg>